<?xml version="1.0" encoding="utf-8"?>
<!-- Generator: Adobe Illustrator 21.0.0, SVG Export Plug-In . SVG Version: 6.00 Build 0)  -->
<svg version="1.1" id="Layer_1" xmlns="http://www.w3.org/2000/svg" xmlns:xlink="http://www.w3.org/1999/xlink" x="0px" y="0px"
	 viewBox="0 0 128 128" style="enable-background:new 0 0 128 128;" xml:space="preserve">
<style type="text/css">
	.st0{fill:#414042;}
	.st1{fill:#2E5CAA;}
</style>
<g>
	<path class="st0" d="M58.6,74.2c0,12.3-3.2,24.1-21.3,24.1c-10.5,0-18.3-4.9-20.4-15.5l13.5-3.3c0.3,3.2,3.4,5.8,6.6,5.8
		c6.8,0,7-7.6,7-12.7V29.8h14.7V74.2z"/>
	<path class="st1" d="M99.8,47c-2.4-3-7.1-4.5-10.6-4.5c-4.1,0-9.9,1.9-9.9,6.8c0,12.2,30.7,4.3,30.7,27.7C110,92,98,99,84.3,99
		c-8.6,0-16.1-2.5-22.5-8.3l10.5-11.5c3,4,7.9,6.3,12.8,6.3c4.8,0,10.2-2.3,10.2-7c0-12.2-31.3-5.7-31.3-27.8
		C64,36.4,76.3,29,89.5,29c7.5,0,14.8,1.9,20.4,7L99.8,47z"/>
</g>
</svg>
